<svg version="1.2" baseProfile="tiny-ps" xmlns="http://www.w3.org/2000/svg" viewBox="0 0 964 498" width="964" height="498">
	<title>Neemans_Logo-svg</title>
	<style>
		tspan { white-space:pre }
		.shp0 { fill: none } 
		.shp1 { fill: #020202 } 
	</style>
	<path id="Layer" class="shp0" d="M-152 -114L1137.43 -114L1137.43 638.04L-152 638.04L-152 -114Z" />
	<g id="Layer">
		<g id="Layer">
			<g id="Layer">
				<path id="Layer" class="shp1" d="M27.61 413.4L28.1 413.4C30.83 415.99 45.7 433.75 61.04 449.62C75.77 464.97 93.34 483.1 102.14 491.9C103.57 493.45 105.5 495 107.9 495C109.01 495 110.14 493.6 110.14 490.33L111.74 397.87C111.88 389.6 113.01 387.01 116.85 385.79C118.61 385.28 119.74 385.28 121.18 385.28C122.78 385.28 123.58 384.59 123.58 383.73C123.58 382.51 122.31 382.33 120.38 382.33C113.49 382.33 108.22 382.69 106.62 382.69C103.58 382.69 96.08 382.33 88.72 382.33C86.65 382.33 85.19 382.51 85.19 383.73C85.19 384.59 85.68 385.28 87.43 385.28C89.36 385.28 92.72 385.28 94.79 386.14C98.15 387.51 99.42 390.1 99.59 399.08L101.03 464.28L100.39 464.28C98.32 462.2 79.62 441.51 70.02 431.34C49.55 409.77 28.45 386.49 26.66 384.59C24.28 382 22.35 379.77 20.61 379.77C19.15 379.77 18.21 381.83 18.21 384.77L16.92 471.7C16.76 484.47 16.29 488.45 12.61 489.47C10.68 490 8.12 490.18 6.19 490.18C4.92 490.18 3.98 490.87 3.98 491.73C3.98 493.1 5.25 493.28 7.16 493.28C14.36 493.28 21.09 492.77 22.36 492.77C24.92 492.77 31.49 493.28 40.59 493.28C42.5 493.28 43.79 492.93 43.79 491.73C43.79 490.87 42.99 490.18 41.39 490.18C39.16 490.18 36.45 490 34.03 489.14C31.32 488.1 29.56 484.65 29.25 473.25L27.61 413.4ZM173.64 450.66C173.64 464.11 173.64 475.68 173 481.88C172.53 486.2 171.73 488.96 168.84 489.65C167.57 490 165.97 490.18 163.88 490.18C162.14 490.18 161.64 491.02 161.64 491.73C161.64 492.77 162.61 493.28 164.37 493.28C167.24 493.28 170.77 493.1 174.11 492.93C177.47 492.93 180.53 492.78 182.11 492.78C186.27 492.78 191.54 492.93 198.44 493.11C205.31 493.47 213.78 493.62 224.34 493.62C229.61 493.62 230.88 493.62 231.84 489.84C232.64 486.92 233.77 476.89 233.77 473.62C233.77 472.07 233.61 470.17 232.5 470.17C231.53 470.17 231.21 470.86 230.88 472.43C229.94 478.45 228.34 481.57 224.81 483.29C221.14 485.02 215.23 485.17 211.54 485.17C197.14 485.17 192.84 482.94 192.51 472.94C192.35 468.63 192.51 456.21 192.51 451.19L192.51 439.46C192.51 438.6 192.68 437.91 193.31 437.91C196.84 437.91 212.81 438.26 215.38 438.6C220.65 439.13 222.41 441.37 223.21 444.31C223.54 446.19 223.54 448.09 223.7 449.64C223.7 450.35 224.01 450.86 224.97 450.86C226.24 450.86 226.41 448.78 226.41 447.59C226.41 446.55 226.74 440.69 227.04 437.74C227.86 430.33 228.17 427.92 228.17 427.06C228.17 426.2 227.7 425.51 227.04 425.51C226.41 425.51 225.93 426.37 224.81 427.41C223.37 428.78 221.47 429.29 218.1 429.64C214.9 429.97 196.67 429.97 193.47 429.97C192.67 429.97 192.5 429.28 192.5 428.42L192.5 392.2C192.5 391.34 192.83 390.83 193.47 390.83C196.34 390.83 213.14 391.16 215.54 391.52C222.57 392.2 223.7 394.26 224.81 396.85C225.61 398.58 225.77 401.17 225.77 402.21C225.77 403.43 225.93 404.11 226.9 404.11C228.01 404.11 228.34 402.39 228.5 401.7C228.81 399.97 229.14 393.58 229.28 392.03C229.61 385.3 230.41 383.58 230.41 382.54C230.41 381.85 230.25 381.17 229.47 381.17C228.81 381.17 228.01 381.68 227.21 381.85C226.1 382.03 223.87 382.54 221.3 382.71C218.57 382.89 187.4 382.71 182.93 382.71C178.93 382.71 169.97 382.35 162.6 382.35C160.53 382.35 159.4 382.71 159.4 383.75C159.4 384.79 160.36 385.3 161.8 385.3C163.87 385.3 166.29 385.48 167.4 385.81C171.87 387.21 173.16 388.75 173.47 393.75C173.64 398.39 173.64 402.56 173.64 424.79L173.64 450.66L173.64 450.66ZM281.26 450.66C281.26 464.11 281.26 475.68 280.63 481.88C280.16 486.2 279.34 488.96 276.47 489.65C275.2 490 273.6 490.18 271.51 490.18C269.75 490.18 269.27 491.02 269.27 491.73C269.27 492.77 270.23 493.28 272 493.28C274.87 493.28 278.38 493.1 281.74 492.93C285.1 492.93 288.14 492.78 289.74 492.78C293.9 492.78 299.17 492.93 306.04 493.11C312.93 493.47 321.4 493.62 331.97 493.62C337.24 493.62 338.51 493.62 339.48 489.84C340.28 486.92 341.41 476.89 341.41 473.62C341.41 472.07 341.25 470.17 340.12 470.17C339.16 470.17 338.85 470.86 338.52 472.43C337.56 478.45 335.98 481.57 332.45 483.29C328.78 485.02 322.85 485.17 319.18 485.17C304.78 485.17 300.45 482.94 300.15 472.94C299.98 468.63 300.15 456.21 300.15 451.19L300.15 439.46C300.15 438.6 300.31 437.91 300.95 437.91C304.46 437.91 320.45 438.26 323.02 438.6C328.29 439.13 330.06 441.37 330.86 444.31C331.19 446.19 331.19 448.09 331.35 449.64C331.35 450.35 331.66 450.86 332.62 450.86C333.89 450.86 334.05 448.78 334.05 447.59C334.05 446.55 334.38 440.69 334.69 437.74C335.49 430.33 335.82 427.92 335.82 427.06C335.82 426.2 335.35 425.51 334.69 425.51C334.05 425.51 333.56 426.37 332.46 427.41C331.02 428.78 329.12 429.29 325.75 429.64C322.55 429.97 304.32 429.97 301.12 429.97C300.32 429.97 300.16 429.28 300.16 428.42L300.16 392.2C300.16 391.34 300.47 390.83 301.12 390.83C303.99 390.83 320.79 391.16 323.19 391.52C330.22 392.2 331.35 394.26 332.46 396.85C333.26 398.58 333.42 401.17 333.42 402.21C333.42 403.43 333.56 404.11 334.53 404.11C335.66 404.11 335.99 402.39 336.13 401.7C336.46 399.97 336.79 393.58 336.93 392.03C337.26 385.3 338.06 383.58 338.06 382.54C338.06 381.85 337.89 381.17 337.1 381.17C336.46 381.17 335.66 381.68 334.86 381.85C333.75 382.03 331.49 382.54 328.93 382.71C326.22 382.89 295.05 382.71 290.56 382.71C286.56 382.71 277.62 382.35 270.26 382.35C268.17 382.35 267.06 382.71 267.06 383.75C267.06 384.79 268.02 385.3 269.46 385.3C271.53 385.3 273.95 385.48 275.06 385.81C279.53 387.21 280.82 388.75 281.13 393.75C281.29 398.39 281.29 402.56 281.29 424.79L281.29 450.66L281.26 450.66ZM383.44 478.61C382.81 483.46 381.53 489.32 377.7 489.83C375.44 490.18 374.5 490.18 373.37 490.18C371.93 490.18 371.14 490.87 371.14 491.55C371.14 492.92 372.27 493.28 373.7 493.28C378.17 493.28 384.9 492.77 387.6 492.77C390.16 492.77 396.56 493.28 402.47 493.28C404.54 493.28 405.83 492.93 405.83 491.55C405.83 490.87 404.86 490.18 403.59 490.18C402.32 490.18 401.03 490 398.63 489.47C396.23 488.96 394.3 487.92 394.3 485.16C394.3 482.75 394.49 480.87 394.79 478.28L401.5 421.68L402 421.68C406.64 431.86 414.96 449.62 416.07 452.39C417.67 456.53 428.87 478.96 432.21 485.69C434.47 490.18 436.07 493.1 437.81 493.1C439.43 493.1 440.21 491.73 443.41 484.82L473.64 419.95L474.13 419.95L481.96 483.28C482.43 487.42 482.1 489.14 481.3 489.47C480.36 489.83 479.7 490.33 479.7 491.02C479.7 491.91 480.5 492.59 483.86 492.77C489.46 493.1 509.46 493.61 512.96 493.61C515.05 493.61 516.65 493.1 516.65 491.91C516.65 491.02 515.69 490.51 514.39 490.51C512.65 490.51 510.41 490.33 506.41 489.14C502.08 487.77 500.81 483.78 499.52 474.65L486.72 384.42C486.25 381.32 484.65 379.78 483.52 379.78C482.25 379.78 480.98 380.97 479.85 383.38L442.11 465.51L404.37 384.42C402.44 380.46 401.48 379.78 400.06 379.78C398.93 379.78 397.64 381.15 397.33 383.56L383.44 478.61ZM582.08 410.46C582.24 409.95 582.41 409.09 582.9 409.09C583.21 409.09 583.37 409.95 583.54 410.46L611.51 486.91C612.14 488.61 611.2 490.01 610.24 490.18C608.78 490.33 608.48 490.87 608.48 491.73C608.48 492.77 610.08 492.77 612.64 492.92C624.47 493.27 634.71 493.27 639.67 493.27C644.94 493.27 645.74 492.92 645.74 491.72C645.74 490.68 645.08 490.17 643.81 490.17C642.21 490.17 640.61 489.99 638.54 489.64C635.98 489.13 631.98 487.23 626.54 473.95C617.6 451.69 594.07 392.35 590.73 384.23C589.27 380.96 588.64 379.59 586.57 379.59C585.13 379.59 584.01 381.31 582.41 385.45L545.64 477.05C542.75 484.46 540.35 488.95 533.97 489.99C532.68 489.99 531.08 490.17 529.81 490.17C528.68 490.17 528.21 490.86 528.21 491.72C528.21 492.91 529.01 493.27 530.77 493.27C538.11 493.27 545.64 492.76 547.07 492.76C551.54 492.76 558.1 493.27 562.74 493.27C564.18 493.27 564.98 492.92 564.98 491.72C564.98 490.86 564.67 490.17 562.91 490.17L560.82 490.17C556.51 490.17 555.22 488.6 555.22 486.01C555.22 484.29 555.88 480.68 557.31 477.05L582.08 410.46ZM686.99 413.4L687.46 413.4C690.19 415.99 705.06 433.75 720.42 449.62C735.13 464.97 752.72 483.1 761.5 491.9C762.96 493.45 764.86 495 767.26 495C768.39 495 769.5 493.6 769.5 490.33L771.1 397.87C771.27 389.6 772.37 387.01 776.23 385.79C777.97 385.28 779.1 385.28 780.54 385.28C782.14 385.28 782.94 384.59 782.94 383.73C782.94 382.51 781.67 382.33 779.74 382.33C772.87 382.33 767.6 382.69 766 382.69C762.97 382.69 755.44 382.33 748.1 382.33C746.01 382.33 744.57 382.51 744.57 383.73C744.57 384.59 745.04 385.28 746.81 385.28C748.74 385.28 752.1 385.28 754.17 386.14C757.51 387.51 758.81 390.1 758.97 399.08L760.41 464.28L759.77 464.28C757.68 462.2 738.97 441.51 729.37 431.34C708.9 409.77 687.8 386.49 686.03 384.59C683.63 382 681.72 379.77 679.96 379.77C678.52 379.77 677.56 381.83 677.56 384.77L676.27 471.7C676.13 484.47 675.64 488.45 671.96 489.47C670.03 490 667.49 490.18 665.56 490.18C664.29 490.18 663.32 490.87 663.32 491.73C663.32 493.1 664.59 493.28 666.52 493.28C673.72 493.28 680.45 492.77 681.72 492.77C684.26 492.77 690.82 493.28 699.95 493.28C701.86 493.28 703.15 492.93 703.15 491.73C703.15 490.87 702.33 490.18 700.73 490.18C698.5 490.18 695.79 490 693.39 489.14C690.68 488.1 688.92 484.65 688.59 473.25L686.99 413.4ZM827.42 362.52C822.46 362.52 819.26 362.52 819.26 365.11C819.26 367.7 823.26 376.3 825.19 397.88C825.83 403.92 826.46 406.51 827.43 406.51C828.37 406.51 829.01 403.92 829.66 397.88C831.57 376.31 835.57 367.7 835.57 365.11C835.56 362.52 832.37 362.52 827.42 362.52ZM901.75 495.18C909.26 495.18 918.53 494.32 925.25 489.14C935.48 481.37 939.32 472.57 939.32 461.7C939.32 448.43 933.56 437.21 915.02 426.17L909.26 422.72C896.63 415.13 894.39 409.95 894.39 403.41C894.39 393.38 903.5 387.7 913.59 387.7C922.7 387.7 927.17 391.84 929.26 394.6C932.29 398.38 932.93 402.88 932.93 404.27C932.93 406 933.42 406.86 934.37 406.86C935.5 406.86 936.13 405.29 936.13 402.19C936.13 390.64 936.62 386.5 936.62 384.6C936.62 383.56 935.96 383.05 934.69 382.7C931.02 381.66 923.82 380.29 914.69 380.29C895.19 380.29 879.19 391.84 879.19 409.78C879.19 422.72 884.63 432.55 901.26 443.08L909.42 448.26C921.89 456.2 923.33 462.57 923.33 468.95C923.33 479.3 915.97 487.6 903.83 487.6C895.03 487.6 884.49 483.97 881.46 473.11C880.64 470.52 880.17 467.4 880.17 465.52C880.17 464.48 880 463.08 878.73 463.08C877.6 463.08 876.97 464.65 876.97 466.89C876.81 469.3 876.17 478.44 876.17 486.38C876.17 489.65 876.64 490.34 878.9 491.38C884.95 494.32 893.58 495.18 901.75 495.18Z" />
				<path id="Layer" fill-rule="evenodd" class="shp1" d="M684.61 303.09C630.4 303.09 585.08 259.55 567.91 210.62C565.4 203.5 523.69 251.78 527.14 240.91C538.55 210.71 561.02 152.33 576.88 122.52C582.17 112.56 596.87 96.84 610.04 105.71C611.26 106.65 612.5 107.5 613.71 108.82C597.53 161.2 626.24 248.18 684.61 303.09ZM537.31 102.44C565.52 56.5 606.43 57.58 617.62 99.36C600.17 76.26 577.39 100.63 568.53 117.28C529.51 190.62 510.2 280.61 497.01 266.38C479.5 247.51 465.32 226 454.34 210.56C444.29 196.41 419.61 303.03 333.29 303.03C349.06 291.76 391.97 242.4 399.13 188.82C408.04 122.22 351.96 131.99 351.96 155.81C355.26 140.98 380.83 138.78 388.1 153.37C397.07 171.38 384.36 192.09 369.28 192.09C336.4 192.09 327.12 230.8 347.47 261.37C288.48 208.59 314.94 170.74 305.7 138.34C301.31 123.11 290.75 125.54 286.16 128.73C280.94 132.32 275.88 133.07 273.15 129.52C274.61 128.05 276.03 125.96 276.14 123.3C276.16 122.52 275.62 121.88 274.87 121.83C274.14 121.8 273.56 122.41 273.52 123.2C273.47 125.13 272.25 126.73 271.06 127.82C266.9 125.69 259.48 119.52 266.41 109.47C268.8 106.09 262.96 101.5 262.54 113.34C262.49 114.54 261.42 115.08 260.94 115.28C249.75 94.45 283.79 71.71 284.31 57.29C277.7 73.3 263.83 62.74 271.08 55.56C266.75 47.88 269.83 38.3 281.64 35.34C281.36 25.57 288.44 17.42 297.5 17.08L297.52 17.08C300.19 11.6 305.41 7.74 311.61 7.54C314.44 7.49 317.09 8.15 319.47 9.42C322.31 6.5 326.07 4.69 330.25 4.55C335.33 4.41 338.84 8.28 342.11 8.13C346.3 8.01 357.3 3.21 368.1 9.48C350.87 6.13 331.35 19.34 325.2 35.6C325.2 35.6 327.66 30.98 333.79 26.03L337.25 28.88L336.18 24.2C338.76 22.4 341.76 20.63 345.35 19.09L348.69 23.54L348.17 17.91C350.04 17.25 352.02 16.59 354.17 16.06C355.94 15.63 357.96 15.35 360.11 15.26L361.98 22.25L363.64 15.28C367.15 15.47 370.96 16.1 374.83 17.25L374.68 23.85L378.49 18.47C381.4 19.59 385.96 21.81 389.23 24.78L387.31 31.14L391.78 27.27C394.5 30.1 397.12 33.21 399.64 36.67L395.33 42.33L401.87 39.94C403.25 42.08 404.52 44.31 405.74 46.67C406.3 48.47 406.84 50.31 407.24 52.3L401.35 55.7L407.89 56.23C408.15 58.26 408.33 60.32 408.41 62.5C408.43 64.83 408.35 67.16 408.15 69.48L402.13 71.08L407.71 73.09C407.06 77.66 405.86 82.11 404.26 86.39L398.08 85.81L402.58 90.3C401.86 91.91 401.02 93.54 400.14 95.1C399.08 96.98 397.91 98.78 396.63 100.51L391.57 98.76L394.45 103.25C391.63 106.68 388.41 109.7 384.83 112.25L381.22 109.28L382.36 113.94C378.67 116.34 374.7 118.21 370.44 119.68L367.85 115.62L367.74 120.52C363.82 121.64 359.67 122.27 355.46 122.5L353.91 118.41L352.56 122.5C347.87 122.43 343.74 121.56 340.21 120.04L340.57 116.49L338.16 119.13C333.85 116.82 330.39 113.6 327.83 110.02L330.09 106.61L326.56 108.12C324.22 104.33 322.69 100.22 321.81 96.34C321.73 95.78 321.6 95.22 321.53 94.65L325.04 92.75L321.24 92.47C320.83 87.58 321.45 82.49 323.19 77.92L326.8 78.34L324.09 75.84C326.22 71.5 329.44 67.85 333.77 65.69L335.82 68.27L335.38 64.98C335.9 64.81 336.37 64.58 336.91 64.45C341.6 63.03 345.68 63.05 349.06 64.04L349 66.78L350.22 64.37C355.54 66.32 358.89 70.73 359.97 75.51L358.26 76.52L360.15 76.57C360.97 82.03 358.82 87.77 353.14 90.66C356.18 80.36 343.35 74.75 336.92 82.12C330.74 89.2 336.74 103.78 348 105.28C361.1 107 381.95 99.67 381.24 74.34C380.57 49.32 351.42 41.63 342.66 57.21C333.6 56.17 327.23 61.68 324.74 64.09C316.32 73.61 313.98 86.56 316.06 97.57C319.1 113.68 332.18 129.58 354.67 128.88C375.43 128.21 393.98 117.24 404.5 99.45C404.5 99.45 409.77 91.05 413.02 78.51C416.86 63.72 425.15 44.66 438.69 39.7C413.02 78.5 479.94 161.81 493.24 176.18C499.37 182.8 512.82 142.38 537.31 102.44ZM308.42 60.02C308.44 58.78 307.56 57.69 306.42 57.63C301.54 57.5 298.52 59.34 297.02 61.08C294.89 63.55 293.91 67.24 294.37 71.16C294.5 72.28 295.36 73.09 296.35 73.14C296.47 73.14 296.6 73.14 296.71 73.11C297.87 72.96 298.67 71.83 298.52 70.57C298.21 68.02 298.78 65.67 300.07 64.15C301.35 62.7 303.29 62.03 305.89 62.14C306 62.14 306.07 62.12 306.22 62.14C307.34 62.19 308.33 61.23 308.42 60.02Z" />
			</g>
		</g>
		<g id="Layer">
			<path id="Layer" fill-rule="evenodd" class="shp1" d="M948.53 373.89C942.26 373.93 937.16 368.88 937.11 362.6C937.07 356.32 942.12 351.17 948.36 351.14C954.69 351.11 959.83 356.13 959.87 362.39C959.9 368.77 954.9 373.85 948.53 373.89ZM948.5 372.42C953.99 372.4 958.41 367.97 958.39 362.51C958.37 357 953.93 352.59 948.43 352.62C942.97 352.65 938.58 357.07 938.58 362.53C938.59 368 943.03 372.44 948.5 372.42Z" />
			<path id="Layer" fill-rule="evenodd" class="shp1" d="M950.79 364.02C951.96 365.34 953.08 366.62 954.3 368C953.35 368 952.54 368.01 951.73 367.99C951.63 367.99 951.51 367.83 951.42 367.73C950.49 366.67 949.56 365.61 948.64 364.54C948.44 364.3 948.24 364.2 947.93 364.21C947.41 364.23 946.88 364.22 946.3 364.22C946.3 365.5 946.3 366.74 946.3 367.99C945.58 367.99 944.92 367.99 944.22 367.99C944.22 364.24 944.22 360.48 944.22 356.73C944.27 356.71 944.32 356.69 944.36 356.69C946.31 356.71 948.28 356.62 950.22 356.79C953.44 357.07 954.29 360.27 953.16 362.41C952.76 363.16 952.11 363.62 951.31 363.86C951.17 363.89 951.02 363.94 950.79 364.02ZM946.32 362.25C947.6 362.25 948.85 362.32 950.09 362.23C951 362.16 951.54 361.38 951.52 360.46C951.51 359.57 950.95 358.8 950.08 358.73C948.84 358.64 947.59 358.71 946.32 358.71C946.32 359.89 946.32 361.05 946.32 362.25Z" />
		</g>
	</g>
</svg>